<?xml version="1.0" encoding="UTF-8" standalone="no"?>
<svg
   xmlns:dc="http://purl.org/dc/elements/1.1/"
   xmlns:cc="http://creativecommons.org/ns#"
   xmlns:rdf="http://www.w3.org/1999/02/22-rdf-syntax-ns#"
   xmlns:svg="http://www.w3.org/2000/svg"
   xmlns="http://www.w3.org/2000/svg"
   xmlns:sodipodi="http://sodipodi.sourceforge.net/DTD/sodipodi-0.dtd"
   xmlns:inkscape="http://www.inkscape.org/namespaces/inkscape"
   version="1.0"
   width="500"
   height="82"
   viewBox="0 0 400 65.6"
   preserveAspectRatio="xMidYMid meet"
   id="svg8099"
   inkscape:version="0.91 r13725"
   sodipodi:docname="output789.svg">
  <defs
     id="defs8109" />
  <sodipodi:namedview
     pagecolor="#ffffff"
     bordercolor="#666666"
     borderopacity="1"
     objecttolerance="10"
     gridtolerance="10"
     guidetolerance="10"
     inkscape:pageopacity="0"
     inkscape:pageshadow="2"
     inkscape:window-width="1366"
     inkscape:window-height="695"
     id="namedview8107"
     showgrid="false"
     inkscape:zoom="1.468"
     inkscape:cx="526.38364"
     inkscape:cy="30"
     inkscape:window-x="0"
     inkscape:window-y="0"
     inkscape:window-maximized="0"
     inkscape:current-layer="svg8099"
     units="px" />
  <metadata
     id="metadata8101">
Created by potrace 1.15, written by Peter Selinger 2001-2017
<rdf:RDF>
  <cc:Work
     rdf:about="">
    <dc:format>image/svg+xml</dc:format>
    <dc:type
       rdf:resource="http://purl.org/dc/dcmitype/StillImage" />
    <dc:title />
  </cc:Work>
</rdf:RDF>
</metadata>
  <g
     transform="matrix(0.1,0,0,-0.1,0,67.234878)"
     id="g8103"
     style="fill:#000000;stroke:none">
    <path
       d="M 2040,458 C 1619,454 1080,447 843,444 l -433,-6 0,-34 0,-34 53,-1 c 41,-2 32,-4 -46,-13 -76,-8 -101,-15 -108,-28 -9,-16 -27,-18 -159,-18 L 0,310 0,160 0,10 l 1655,0 1655,0 0,65 0,65 345,0 345,0 0,165 0,165 -597,-2 c -329,-1 -942,-5 -1363,-10 z"
       id="path8105"
       inkscape:connector-curvature="0" />
  </g>
  <g
     style="font-style:normal;font-variant:normal;font-weight:normal;font-stretch:normal;font-size:29.97161674px;line-height:125%;font-family:'Alfa Slab One';-inkscape-font-specification:'Alfa Slab One, Normal';text-align:start;letter-spacing:0px;word-spacing:0px;writing-mode:lr-tb;text-anchor:start;fill:#000000;fill-opacity:1;stroke:none;stroke-width:1px;stroke-linecap:butt;stroke-linejoin:miter;stroke-opacity:1"
     id="text8111">
    <path
       d="m 41.511938,18.751195 1.498581,0 0,-13.4872275 -1.498581,0 0,-4.91534518 13.756973,0 q 3.866338,0 5.904408,1.58849568 2.03807,1.5884957 2.03807,5.1551181 0,2.0080983 -0.809234,3.4767079 -0.809233,1.468609 -2.307814,2.03807 l 0.02997,0.299716 q 2.877276,0.449574 2.877276,3.536651 l 0,2.307814 1.408666,0 0,4.915345 -9.501003,0 0,-7.04333 q 0,-1.168893 -0.359659,-1.768325 -0.329688,-0.599433 -1.078978,-0.809234 -0.719319,-0.209801 -2.068042,-0.209801 l 0,4.915345 1.978127,0 0,4.915345 -11.868761,0 0,-4.915345 z m 11.509101,-8.571882 q 0.869177,0 1.28878,-0.4495746 0.449574,-0.4795459 0.449574,-1.4686093 l 0,-1.0789782 q 0,-0.9890633 -0.449574,-1.4386376 -0.419603,-0.4795458 -1.28878,-0.4795458 l -1.618467,0 0,4.9153455 1.618467,0 z"
       style=""
       id="path8069" />
    <path
       d="m 65.45411,23.66654 0,-4.915345 1.49858,0 0,-13.4872275 -1.49858,0 0,-4.91534518 20.230841,0 0,9.05142828 -6.713642,0 0,-4.1360831 -3.626566,0 0,4.7355154 2.637502,0 0,3.4167641 -2.637502,0 0,5.334948 3.626566,0 0,-4.735515 6.713642,0 0,9.65086 -20.230841,0 z"
       style=""
       id="path8071" />
    <path
       d="m 86.820593,18.751195 1.498581,0 0,-13.4572559 -1.498581,0 0,-4.94531678 12.168477,0 q 5.00526,0 7.94248,2.75738878 2.96719,2.7274171 2.96719,8.9015699 0,6.174153 -2.96719,8.931542 -2.93722,2.727417 -7.94248,2.727417 l -12.168477,0 0,-4.915345 z m 11.628988,0 q 1.019034,0 1.528552,-0.539489 0.509517,-0.539489 0.509517,-1.678411 l 0,-9.0514279 q 0,-2.2178996 -2.038069,-2.2178996 l -1.738354,0 0,13.4872275 1.738354,0 z"
       style=""
       id="path8073" />
    <path
       d="m 132.05947,18.751195 1.19886,0 0,4.915345 -11.74887,0 0,-4.915345 1.7983,0 -0.47955,-2.397729 -4.07614,0 -0.47955,2.397729 1.7983,0 0,4.915345 -10.25029,0 0,-4.915345 1.19886,0 5.06521,-18.40257268 10.90966,0 5.06521,18.40257268 z m -12.64802,-5.574721 2.75738,0 -1.22883,-5.9643514 -0.29972,0 -1.22883,5.9643514 z"
       style=""
       id="path8075" />
    <path
       d="m 144.98754,24.086143 q -5.66464,0 -8.75172,-2.877275 -3.0571,-2.877276 -3.0571,-9.201287 0,-12.07856132 11.74887,-12.07856132 2.84731,0 5.27501,0.68934719 2.45767,0.68934723 3.65654,1.52855243 l 0,7.4929042 -7.19319,0 0,-2.1579564 q 0,-1.1389214 -0.50952,-1.6784105 -0.50952,-0.5394891 -1.52855,-0.5394891 -1.01904,0 -1.52856,0.5394891 -0.50951,0.5394891 -0.50951,1.6784105 l 0,9.0514279 q 0,1.138922 0.50951,1.678411 0.50952,0.539489 1.52856,0.539489 1.01903,0 1.52855,-0.539489 0.50952,-0.539489 0.50952,-1.678411 l 0,-2.427701 7.19319,0 0,7.762649 q -1.22884,0.839205 -3.65654,1.528553 -2.39773,0.689347 -5.21506,0.689347 z"
       style=""
       id="path8077" />
    <path
       d="m 177.31801,7.6017536 -5.15511,0 0,-2.3377861 -1.91819,0 0,13.4872275 2.09802,0 0,4.915345 -12.58808,0 0,-4.915345 2.09801,0 0,-13.4872275 -1.91818,0 0,2.3377861 -5.15512,0 0,-7.25313128 22.53865,0 0,7.25313128 z"
       style=""
       id="path8079" />
    <path
       d="m 178.31597,23.66654 0,-4.915345 1.49858,0 0,-13.4872275 -1.49858,0 0,-4.91534518 20.23084,0 0,9.05142828 -6.71364,0 0,-4.1360831 -3.62657,0 0,4.7355154 2.63751,0 0,3.4167641 -2.63751,0 0,5.334948 3.62657,0 0,-4.735515 6.71364,0 0,9.65086 -20.23084,0 z"
       style=""
       id="path8081" />
    <path
       d="m 199.68246,18.751195 1.49858,0 0,-13.4572559 -1.49858,0 0,-4.94531678 12.16847,0 q 5.00526,0 7.94248,2.75738878 2.96719,2.7274171 2.96719,8.9015699 0,6.174153 -2.96719,8.931542 -2.93722,2.727417 -7.94248,2.727417 l -12.16847,0 0,-4.915345 z m 11.62898,0 q 1.01904,0 1.52856,-0.539489 0.50951,-0.539489 0.50951,-1.678411 l 0,-9.0514279 q 0,-2.2178996 -2.03807,-2.2178996 l -1.73835,0 0,13.4872275 1.73835,0 z"
       style=""
       id="path8083" />
    <path
       d="m 255.17397,7.6017536 -5.15512,0 0,-2.3377861 -1.91818,0 0,13.4872275 2.09801,0 0,4.915345 -12.58808,0 0,-4.915345 2.09802,0 0,-13.4872275 -1.91819,0 0,2.3377861 -5.15511,0 0,-7.25313128 22.53865,0 0,7.25313128 z"
       style=""
       id="path8085" />
    <path
       d="m 267.44125,24.086143 q -5.4848,0 -8.48196,-2.877275 -2.96719,-2.877276 -2.96719,-9.201287 0,-6.3240109 2.96719,-9.2012861 2.99716,-2.87727522 8.48196,-2.87727522 5.48481,0 8.452,2.87727522 2.99716,2.8772752 2.99716,9.2012861 0,6.324011 -2.99716,9.201287 -2.96719,2.877275 -8.452,2.877275 z m 0,-5.334948 q 1.01904,0 1.52856,-0.539489 0.50951,-0.539489 0.50951,-1.678411 l 0,-9.0514279 q 0,-1.1389214 -0.50951,-1.6784105 -0.50952,-0.5394891 -1.52856,-0.5394891 -1.01903,0 -1.52855,0.5394891 -0.50952,0.5394891 -0.50952,1.6784105 l 0,9.0514279 q 0,1.168893 0.50952,1.708383 0.50952,0.509517 1.52855,0.509517 z"
       style=""
       id="path8087" />
    <path
       d="m 304.92029,0.34862232 9.59092,0 0,4.91534518 -1.19886,0 -4.46577,18.4025725 -8.96152,0 -2.72741,-12.947738 -0.29972,0 -2.87728,12.947738 -8.96151,0 -4.76549,-18.4025725 -1.19886,0 0,-4.91534518 11.0895,0 0,4.91534518 -1.13892,0 1.16889,7.6427625 0.29971,0 2.84731,-12.55810768 8.63182,0 2.63751,12.55810768 0.29971,0 1.1689,-7.6427625 -1.13893,0 0,-4.91534518 z"
       style=""
       id="path8089" />
    <path
       d="m 315.47123,23.66654 0,-4.915345 1.49858,0 0,-13.4872275 -1.49858,0 0,-4.91534518 20.23084,0 0,9.05142828 -6.71364,0 0,-4.1360831 -3.62657,0 0,4.7355154 2.6375,0 0,3.4167641 -2.6375,0 0,5.334948 3.62657,0 0,-4.735515 6.71364,0 0,9.65086 -20.23084,0 z"
       style=""
       id="path8091" />
    <path
       d="m 336.83771,18.751195 1.49858,0 0,-13.4872275 -1.49858,0 0,-4.91534518 13.75698,0 q 3.86633,0 5.9044,1.58849568 2.03807,1.5884957 2.03807,5.1551181 0,2.0080983 -0.80923,3.4767079 -0.80923,1.468609 -2.30781,2.03807 l 0.03,0.299716 q 2.87727,0.449574 2.87727,3.536651 l 0,2.307814 1.40867,0 0,4.915345 -9.501,0 0,-7.04333 q 0,-1.168893 -0.35966,-1.768325 -0.32969,-0.599433 -1.07898,-0.809234 -0.71932,-0.209801 -2.06804,-0.209801 l 0,4.915345 1.97812,0 0,4.915345 -11.86876,0 0,-4.915345 z m 11.5091,-8.571882 q 0.86918,0 1.28878,-0.4495746 0.44958,-0.4795459 0.44958,-1.4686093 l 0,-1.0789782 q 0,-0.9890633 -0.44958,-1.4386376 -0.4196,-0.4795458 -1.28878,-0.4795458 l -1.61846,0 0,4.9153455 1.61846,0 z"
       style=""
       id="path8093" />
  </g>
</svg>
