<?xml version="1.0" encoding="UTF-8" standalone="no"?>
<svg
   xmlns:dc="http://purl.org/dc/elements/1.1/"
   xmlns:cc="http://creativecommons.org/ns#"
   xmlns:rdf="http://www.w3.org/1999/02/22-rdf-syntax-ns#"
   xmlns:svg="http://www.w3.org/2000/svg"
   xmlns="http://www.w3.org/2000/svg"
   xmlns:sodipodi="http://sodipodi.sourceforge.net/DTD/sodipodi-0.dtd"
   xmlns:inkscape="http://www.inkscape.org/namespaces/inkscape"
   version="1.0"
   width="280"
   height="26"
   viewBox="0 0 224 20.8"
   preserveAspectRatio="xMidYMid meet"
   id="svg8147"
   inkscape:version="0.91 r13725"
   sodipodi:docname="output158.svg">
  <defs
     id="defs8159" />
  <sodipodi:namedview
     pagecolor="#ffffff"
     bordercolor="#666666"
     borderopacity="1"
     objecttolerance="10"
     gridtolerance="10"
     guidetolerance="10"
     inkscape:pageopacity="0"
     inkscape:pageshadow="2"
     inkscape:window-width="1345"
     inkscape:window-height="701"
     id="namedview8157"
     showgrid="false"
     units="px"
     inkscape:zoom="2.1046595"
     inkscape:cx="155.36955"
     inkscape:cy="112.5"
     inkscape:window-x="0"
     inkscape:window-y="0"
     inkscape:window-maximized="0"
     inkscape:current-layer="svg8147" />
  <metadata
     id="metadata8149">
Created by potrace 1.15, written by Peter Selinger 2001-2017
<rdf:RDF>
  <cc:Work
     rdf:about="">
    <dc:format>image/svg+xml</dc:format>
    <dc:type
       rdf:resource="http://purl.org/dc/dcmitype/StillImage" />
    <dc:title></dc:title>
  </cc:Work>
</rdf:RDF>
</metadata>
  <path
     style="fill:#000000;stroke:none"
     inkscape:connector-curvature="0"
     id="path8155"
     d="m 105.42398,0.64032698 -97.3000018,0.3 0,4.00000002 c 0,3.6 0.3,4 2.4999998,4 1.4,0 2.5,0.4 2.5,1 0,0.6 -3,1 -6.9999998,1 l -7,0 0,4 c 0,3.6 0.3,4 2.5,4 1.4,0 2.5,0.4 2.5,1 0,0.7 37.1999998,1 109.5000018,1 l 109.5,0 0,-10.5 0,-10.50000002 -10.2,0.2 c -5.7,0.2 -54.1,0.4 -107.5,0.5 z" />
</svg>
