<?xml version="1.0" encoding="UTF-8" standalone="no"?>
<svg
   xmlns:dc="http://purl.org/dc/elements/1.1/"
   xmlns:cc="http://creativecommons.org/ns#"
   xmlns:rdf="http://www.w3.org/1999/02/22-rdf-syntax-ns#"
   xmlns:svg="http://www.w3.org/2000/svg"
   xmlns="http://www.w3.org/2000/svg"
   xmlns:sodipodi="http://sodipodi.sourceforge.net/DTD/sodipodi-0.dtd"
   xmlns:inkscape="http://www.inkscape.org/namespaces/inkscape"
   version="1.0"
   width="403pt"
   height="32pt"
   viewBox="0 0 403 32"
   preserveAspectRatio="xMidYMid meet"
   id="svg8203"
   inkscape:version="0.91 r13725"
   sodipodi:docname="output132.svg">
  <defs
     id="defs8215" />
  <sodipodi:namedview
     pagecolor="#ffffff"
     bordercolor="#666666"
     borderopacity="1"
     objecttolerance="10"
     gridtolerance="10"
     guidetolerance="10"
     inkscape:pageopacity="0"
     inkscape:pageshadow="2"
     inkscape:window-width="1328"
     inkscape:window-height="648"
     id="namedview8213"
     showgrid="false"
     inkscape:zoom="1.0878412"
     inkscape:cx="259.2058"
     inkscape:cy="40.083529"
     inkscape:window-x="0"
     inkscape:window-y="0"
     inkscape:window-maximized="0"
     inkscape:current-layer="svg8203" />
  <metadata
     id="metadata8205">
Created by potrace 1.15, written by Peter Selinger 2001-2017
<rdf:RDF>
  <cc:Work
     rdf:about="">
    <dc:format>image/svg+xml</dc:format>
    <dc:type
       rdf:resource="http://purl.org/dc/dcmitype/StillImage" />
    <dc:title></dc:title>
  </cc:Work>
</rdf:RDF>
</metadata>
  <path
     style="fill:#000000;stroke:none"
     inkscape:connector-curvature="0"
     id="path8211"
     d="m 170,3.6354014 0,3.9 -12.5,0.4000002 c -7.7,0.2 -12.9,0.7 -13.3,1.4 -0.5,0.8000004 -21.9,1.3000004 -71.6,1.7000004 -55.1,0.6 -71.2,1 -71.8,2 -0.4,0.6 -0.7,5 -0.6,9.7 l 0.3,8.5 85.1,0.3 85.1,0.2 0.7,-3.1 c 0.3,-1.7 0.6,-4.2 0.6,-5.5 l 0,-2.4 115.5,0 115.5,0 0,-9.8 0,-9.9000006 -23.2,-0.59999998 c -12.8,-0.4 -65.3,-0.7 -116.5,-0.7 l -93.3,0 0,3.89999998 z" />
</svg>
