<?xml version="1.0" encoding="UTF-8" standalone="no"?>
<svg
   xmlns:dc="http://purl.org/dc/elements/1.1/"
   xmlns:cc="http://creativecommons.org/ns#"
   xmlns:rdf="http://www.w3.org/1999/02/22-rdf-syntax-ns#"
   xmlns:svg="http://www.w3.org/2000/svg"
   xmlns="http://www.w3.org/2000/svg"
   xmlns:sodipodi="http://sodipodi.sourceforge.net/DTD/sodipodi-0.dtd"
   xmlns:inkscape="http://www.inkscape.org/namespaces/inkscape"
   version="1.0"
   width="400pt"
   height="30pt"
   viewBox="0 0 400 30"
   preserveAspectRatio="xMidYMid meet"
   id="svg2"
   inkscape:version="0.91 r13725"
   sodipodi:docname="output150.svg">
  <defs
     id="defs16" />
  <sodipodi:namedview
     pagecolor="#ffffff"
     bordercolor="#666666"
     borderopacity="1"
     objecttolerance="10"
     gridtolerance="10"
     guidetolerance="10"
     inkscape:pageopacity="0"
     inkscape:pageshadow="2"
     inkscape:window-width="1193"
     inkscape:window-height="571"
     id="namedview14"
     showgrid="false"
     inkscape:zoom="0.548"
     inkscape:cx="250"
     inkscape:cy="202.5"
     inkscape:window-x="0"
     inkscape:window-y="0"
     inkscape:window-maximized="0"
     inkscape:current-layer="svg2" />
  <metadata
     id="metadata4">
Created by potrace 1.15, written by Peter Selinger 2001-2017
<rdf:RDF>
  <cc:Work
     rdf:about="">
    <dc:format>image/svg+xml</dc:format>
    <dc:type
       rdf:resource="http://purl.org/dc/dcmitype/StillImage" />
    <dc:title></dc:title>
  </cc:Work>
</rdf:RDF>
</metadata>
  <g
     style="fill:#000000;stroke:none"
     transform="matrix(0.1,0,0,-0.1,7.0802909e-8,31.459847)"
     id="g6">
    <path
       inkscape:connector-curvature="0"
       d="m 3327,296 c -5,-11 -27,-16 -84,-18 -72,-3 -78,-5 -81,-25 -3,-22 -8,-23 -84,-23 -71,0 -80,-2 -85,-20 -5,-19 -14,-20 -169,-20 l -164,0 0,-40 0,-40 670,0 671,0 -3,98 -3,97 -331,3 c -284,2 -333,0 -337,-12 z"
       id="path10" />
    <path
       inkscape:connector-curvature="0"
       d="m 0,90 0,-90 338,2 337,3 0,85 0,85 -337,3 -338,2 0,-90 z"
       id="path12" />
  </g>
</svg>
